<svg width="80" height="80" viewBox="0 0 80 80" fill="none" xmlns="http://www.w3.org/2000/svg">
<g id="Icon_atom 1">
<g id="Group">
<path id="Vector" d="M41.8751 51.875C47.398 51.875 51.8751 47.3978 51.8751 41.875C51.8751 36.3522 47.398 31.875 41.8751 31.875C36.3523 31.875 31.8751 36.3522 31.8751 41.875C31.8751 47.3978 36.3523 51.875 41.8751 51.875Z" fill="#A1B0FF"/>
<path id="Vector_2" d="M40.0001 50.625C45.8681 50.625 50.6251 45.868 50.6251 40C50.6251 34.132 45.8681 29.375 40.0001 29.375C34.1321 29.375 29.3751 34.132 29.3751 40C29.3751 45.868 34.1321 50.625 40.0001 50.625Z" stroke="white" stroke-width="1.25"/>
<path id="Vector_3" d="M29.3936 50.6068C19.6304 40.8437 16.4646 28.1804 22.3225 22.3226C28.1803 16.4647 40.8436 19.6305 50.6068 29.3936C60.3699 39.1567 63.5357 51.82 57.6778 57.6779C51.82 63.5358 39.1567 60.3699 29.3936 50.6068Z" stroke="white" stroke-width="1.25"/>
<path id="Vector_4" d="M50.6066 50.6068C60.3697 40.8437 63.5355 28.1804 57.6776 22.3226C51.8198 16.4647 39.1565 19.6305 29.3934 29.3936C19.6303 39.1567 16.4644 51.82 22.3223 57.6779C28.1802 63.5358 40.8435 60.3699 50.6066 50.6068Z" stroke="white" stroke-width="1.25"/>
<path id="Vector_5" d="M40.0001 45C42.7615 45 45.0001 42.7614 45.0001 40C45.0001 37.2386 42.7615 35 40.0001 35C37.2387 35 35.0001 37.2386 35.0001 40C35.0001 42.7614 37.2387 45 40.0001 45Z" stroke="white" stroke-width="1.25"/>
</g>
</g>
</svg>
