<svg width="50" height="46" viewBox="0 0 50 46" fill="none" xmlns="http://www.w3.org/2000/svg">
<g id="Group">
<path id="Vector" fill-rule="evenodd" clip-rule="evenodd" d="M11.0988 2.08939L24.9504 0.625L38.8019 2.08939L49.5257 16.4851L24.9504 45.1029L0.375 16.4851L11.0988 2.08939Z" fill="#FDB300"/>
<g id="Group_2">
<path id="Vector_2" fill-rule="evenodd" clip-rule="evenodd" d="M10.3293 16.4854L24.9504 45.1031L0.375 16.4854H10.3293Z" fill="#EA6C00"/>
<path id="Vector_3" fill-rule="evenodd" clip-rule="evenodd" d="M39.5714 16.4854L24.9503 45.1031L49.5256 16.4854H39.5714Z" fill="#EA6C00"/>
<path id="Vector_4" fill-rule="evenodd" clip-rule="evenodd" d="M10.3292 16.4854H39.5715L24.9503 45.1031L10.3292 16.4854Z" fill="#FDAD00"/>
</g>
<g id="Group_3">
<path id="Vector_5" fill-rule="evenodd" clip-rule="evenodd" d="M24.9503 0.625L11.0987 2.08938L10.3292 16.4851L24.9503 0.625Z" fill="#FDD231"/>
<path id="Vector_6" fill-rule="evenodd" clip-rule="evenodd" d="M24.9503 0.625L38.8019 2.08938L39.5714 16.4851L24.9503 0.625Z" fill="#FDD231"/>
<path id="Vector_7" fill-rule="evenodd" clip-rule="evenodd" d="M49.5258 16.4851L38.8019 2.08936L39.5715 16.4851H49.5258Z" fill="#FDAD00"/>
<path id="Vector_8" fill-rule="evenodd" clip-rule="evenodd" d="M0.375 16.4851L11.0988 2.08936L10.3293 16.4851H0.375Z" fill="#FDAD00"/>
<path id="Vector_9" fill-rule="evenodd" clip-rule="evenodd" d="M24.9503 0.625L10.3292 16.4851H39.5715L24.9503 0.625Z" fill="#FEEEB7"/>
</g>
</g>
</svg>
