<svg width="38" height="56" viewBox="0 0 38 56" fill="none" xmlns="http://www.w3.org/2000/svg">
<g id="figma-logo 1" clip-path="url(#clip0_8_9132)">
<g id="Group">
<path id="path0 fill" d="M9.33712 56.0002C14.4891 56.0002 18.6705 51.8188 18.6705 46.6668V37.3335H9.33712C4.18512 37.3335 0.00378418 41.5148 0.00378418 46.6668C0.00378418 51.8188 4.18512 56.0002 9.33712 56.0002Z" fill="#0ACF83"/>
<path id="path1 fill" d="M0.00378418 27.9998C0.00378418 22.8478 4.18512 18.6665 9.33712 18.6665H18.6705V37.3332H9.33712C4.18512 37.3332 0.00378418 33.1518 0.00378418 27.9998Z" fill="#A259FF"/>
<path id="path1 fill 1" d="M0.0045166 9.33333C0.0045166 4.18133 4.18585 0 9.33785 0H18.6712V18.6667H9.33785C4.18585 18.6667 0.0045166 14.4853 0.0045166 9.33333Z" fill="#F24E1E"/>
<path id="path2 fill" d="M18.6704 0H28.0037C33.1557 0 37.3371 4.18133 37.3371 9.33333C37.3371 14.4853 33.1557 18.6667 28.0037 18.6667H18.6704V0Z" fill="#FF7262"/>
<path id="path3 fill" d="M37.3371 27.9998C37.3371 33.1518 33.1557 37.3332 28.0037 37.3332C22.8517 37.3332 18.6704 33.1518 18.6704 27.9998C18.6704 22.8478 22.8517 18.6665 28.0037 18.6665C33.1557 18.6665 37.3371 22.8478 37.3371 27.9998Z" fill="#1ABCFE"/>
</g>
</g>
<defs>
<clipPath id="clip0_8_9132">
<rect width="37.3408" height="56" fill="white"/>
</clipPath>
</defs>
</svg>
