<svg width="49" height="50" viewBox="0 0 49 50" fill="none" xmlns="http://www.w3.org/2000/svg">
<g id="Google__G__Logo 1" clip-path="url(#clip0_8_9154)">
<g id="Group">
<path id="Vector" d="M48.792 25.2158C48.792 23.5402 48.6562 21.8555 48.3663 20.207H25.1157V29.6993H38.4303C37.8777 32.7607 36.1025 35.4689 33.503 37.1898V43.349H41.4464C46.111 39.0557 48.792 32.7154 48.792 25.2158Z" fill="#4285F4"/>
<path id="Vector_2" d="M25.1157 49.2996C31.7639 49.2996 37.3705 47.1167 41.4555 43.3488L33.512 37.1897C31.302 38.6932 28.4489 39.5446 25.1248 39.5446C18.694 39.5446 13.2414 35.2061 11.2849 29.373H3.08789V35.7224C7.27246 44.0462 15.7956 49.2996 25.1157 49.2996Z" fill="#34A853"/>
<path id="Vector_3" d="M11.2758 29.3732C10.2433 26.3117 10.2433 22.9967 11.2758 19.9352V13.5859H3.08785C-0.408351 20.5512 -0.408351 28.7573 3.08785 35.7225L11.2758 29.3732Z" fill="#FBBC04"/>
<path id="Vector_4" d="M25.1157 9.75464C28.63 9.70029 32.0266 11.0227 34.5718 13.4501L41.6095 6.41242C37.1532 2.22785 31.2386 -0.072752 25.1157 -0.000291991C15.7956 -0.000291991 7.27246 5.25306 3.08789 13.586L11.2759 19.9353C13.2232 14.0932 18.6849 9.75464 25.1157 9.75464Z" fill="#EA4335"/>
</g>
</g>
<defs>
<clipPath id="clip0_8_9154">
<rect width="48.3218" height="49.3" fill="white" transform="translate(0.470215)"/>
</clipPath>
</defs>
</svg>
