<svg width="39" height="37" viewBox="0 0 39 37" fill="none" xmlns="http://www.w3.org/2000/svg">
<g id="Group">
<path id="Vector" d="M8.58146 34.888C5.5409 29.9262 3.78809 24.0899 3.78809 17.8442C3.78809 11.9728 5.3783 6.31608 8.08989 1.55469" stroke="white" stroke-width="3" stroke-miterlimit="10" stroke-linecap="round" stroke-linejoin="round"/>
<path id="Vector_2" d="M1.5 3.62213L8.08992 1.55469L10.1533 8.25299" stroke="white" stroke-width="3" stroke-miterlimit="10" stroke-linecap="round" stroke-linejoin="round"/>
<path id="Vector_3" d="M23.4465 25.4287L27.7381 27.9943" stroke="white" stroke-width="3" stroke-miterlimit="10" stroke-linecap="round" stroke-linejoin="round"/>
<path id="Vector_4" d="M37.3333 14.9823L34.1786 12.1759C32.8121 10.9602 30.7212 11.0728 29.493 12.4281L23.1511 19.4268L15.2832 14.7232C14.0981 14.0147 12.5631 14.4011 11.8546 15.5862V15.5862C11.1461 16.7713 11.5325 18.3063 12.7176 19.0148L23.4466 25.4288L21.7362 28.2898C21.2639 29.0799 21.5214 30.1032 22.3115 30.5755L28.0336 33.9963C30.5371 35.4929 34.5079 33.0123 37.3243 34.696" stroke="white" stroke-width="3" stroke-miterlimit="10" stroke-linecap="round" stroke-linejoin="round"/>
</g>
</svg>
