<svg width="40" height="34" viewBox="0 0 40 34" fill="none" xmlns="http://www.w3.org/2000/svg">
<g id="Group">
<path id="Vector" d="M15.8333 10.333L26.6666 16.9997L15.8333 23.6663V10.333Z" stroke="white" stroke-width="3" stroke-miterlimit="10" stroke-linecap="round" stroke-linejoin="round"/>
<path id="Vector_2" d="M4.99996 2H35C35.884 2 36.7319 2.35119 37.357 2.97631C37.9821 3.60143 38.3333 4.44928 38.3333 5.33333V28.6667C38.3333 29.5507 37.9821 30.3986 37.357 31.0237C36.7319 31.6488 35.884 32 35 32H4.99996C4.1159 32 3.26806 31.6488 2.64294 31.0237C2.01782 30.3986 1.66663 29.5507 1.66663 28.6667V5.33333C1.66663 4.44928 2.01782 3.60143 2.64294 2.97631C3.26806 2.35119 4.1159 2 4.99996 2V2Z" stroke="white" stroke-width="3" stroke-miterlimit="10" stroke-linecap="round" stroke-linejoin="round"/>
</g>
</svg>
