<svg width="48" height="48" viewBox="0 0 48 48" fill="none" xmlns="http://www.w3.org/2000/svg">
<g id="puzzle-toy 1">
<g id="Group">
<path id="Vector" d="M9.99011 37.8511L24.0001 45.9391L38.0101 37.8511" stroke="white" stroke-width="3" stroke-miterlimit="10" stroke-linecap="round" stroke-linejoin="round"/>
<path id="Vector_2" d="M19.01 4.94189L5 13.0299V29.2069" stroke="white" stroke-width="3" stroke-miterlimit="10" stroke-linecap="round" stroke-linejoin="round"/>
<path id="Vector_3" d="M43.0001 29.2079V13.0299L28.9901 4.94189" stroke="white" stroke-width="3" stroke-miterlimit="10" stroke-linecap="round" stroke-linejoin="round"/>
<path id="Vector_4" d="M29 5V12C29 13.657 26.761 15 24 15C21.239 15 19 13.657 19 12V5" stroke="white" stroke-width="3" stroke-miterlimit="10" stroke-linecap="round" stroke-linejoin="round"/>
<path id="Vector_5" d="M24 8C26.7614 8 29 6.65685 29 5C29 3.34315 26.7614 2 24 2C21.2386 2 19 3.34315 19 5C19 6.65685 21.2386 8 24 8Z" stroke="white" stroke-width="3" stroke-miterlimit="10" stroke-linecap="round" stroke-linejoin="round"/>
<path id="Vector_6" d="M5 13.0298L24 23.9998L43 13.0298" stroke="white" stroke-width="3" stroke-miterlimit="10" stroke-linecap="round" stroke-linejoin="round"/>
<path id="Vector_7" d="M42.954 29.1699L36.892 25.6699C35.457 24.8409 33.175 26.1089 31.792 28.4999C30.409 30.8909 30.455 33.4999 31.892 34.3299L37.954 37.8299" stroke="white" stroke-width="3" stroke-miterlimit="10" stroke-linecap="round" stroke-linejoin="round"/>
<path id="Vector_8" d="M42.954 29.1699C41.52 28.3409 39.237 29.6089 37.854 31.9999C36.471 34.3909 36.518 36.9999 37.954 37.8299C39.39 38.6599 41.672 37.3919 43.054 34.9999C44.436 32.6079 44.389 29.9999 42.954 29.1699Z" stroke="white" stroke-width="3" stroke-miterlimit="10" stroke-linecap="round" stroke-linejoin="round"/>
<path id="Vector_9" d="M24 24V45.939" stroke="white" stroke-width="3" stroke-miterlimit="10" stroke-linecap="round" stroke-linejoin="round"/>
<path id="Vector_10" d="M10.045 37.8299L16.108 34.3299C17.542 33.5019 17.586 30.8909 16.208 28.4999C14.83 26.1089 12.544 24.8409 11.108 25.6699L5.04504 29.1699" stroke="white" stroke-width="3" stroke-miterlimit="10" stroke-linecap="round" stroke-linejoin="round"/>
<path id="Vector_11" d="M10.1431 32C8.76305 29.608 6.48005 28.341 5.04305 29.17C3.60605 29.999 3.56505 32.608 4.94305 35C6.32105 37.392 8.60706 38.659 10.0431 37.83C11.4791 37.001 11.5241 34.391 10.1431 32Z" stroke="white" stroke-width="3" stroke-miterlimit="10" stroke-linecap="round" stroke-linejoin="round"/>
</g>
</g>
</svg>
