<svg width="48" height="48" viewBox="0 0 48 48" fill="none" xmlns="http://www.w3.org/2000/svg">
<g clip-path="url(#clip0_8_9862)">
<path d="M20.354 14.6973L11.541 5.88428" stroke="white" stroke-width="3" stroke-miterlimit="10" stroke-linecap="round" stroke-linejoin="round"/>
<path d="M5.88403 11.541L14.698 20.354" stroke="white" stroke-width="3" stroke-miterlimit="10" stroke-linecap="round" stroke-linejoin="round"/>
<path d="M33.303 20.354L42.116 11.541" stroke="white" stroke-width="3" stroke-miterlimit="10" stroke-linecap="round" stroke-linejoin="round"/>
<path d="M36.459 5.88428L27.646 14.6983" stroke="white" stroke-width="3" stroke-miterlimit="10" stroke-linecap="round" stroke-linejoin="round"/>
<path d="M27.646 33.3032L36.459 42.1162" stroke="white" stroke-width="3" stroke-miterlimit="10" stroke-linecap="round" stroke-linejoin="round"/>
<path d="M42.116 36.459L33.302 27.646" stroke="white" stroke-width="3" stroke-miterlimit="10" stroke-linecap="round" stroke-linejoin="round"/>
<path d="M14.697 27.646L5.88403 36.459" stroke="white" stroke-width="3" stroke-miterlimit="10" stroke-linecap="round" stroke-linejoin="round"/>
<path d="M11.541 42.1162L20.354 33.3022" stroke="white" stroke-width="3" stroke-miterlimit="10" stroke-linecap="round" stroke-linejoin="round"/>
<path d="M39.5559 39.5562C48.1474 30.9647 48.1474 17.0353 39.5559 8.4438C30.9645 -0.147651 17.035 -0.147651 8.44353 8.4438C-0.147923 17.0353 -0.147923 30.9647 8.44353 39.5562C17.035 48.1477 30.9645 48.1477 39.5559 39.5562Z" stroke="white" stroke-width="3" stroke-miterlimit="10" stroke-linecap="round" stroke-linejoin="round"/>
<path d="M31.0708 31.071C34.976 27.1658 34.976 20.8342 31.0708 16.929C27.1656 13.0238 20.834 13.0238 16.9288 16.929C13.0236 20.8342 13.0236 27.1658 16.9288 31.071C20.834 34.9762 27.1656 34.9762 31.0708 31.071Z" stroke="white" stroke-width="3" stroke-miterlimit="10" stroke-linecap="round" stroke-linejoin="round"/>
</g>
<defs>
<clipPath id="clip0_8_9862">
<rect width="48" height="48" fill="white"/>
</clipPath>
</defs>
</svg>
