<svg width="25" height="23" viewBox="0 0 25 23" fill="none" xmlns="http://www.w3.org/2000/svg">
<g id="Group">
<path id="Vector" d="M13.246 1.42088L16.356 7.72088L23.31 8.73288C23.4636 8.75503 23.6079 8.81974 23.7266 8.9197C23.8453 9.01966 23.9337 9.15086 23.9817 9.29844C24.0296 9.44603 24.0353 9.6041 23.9981 9.75476C23.9609 9.90542 23.8822 10.0426 23.771 10.1509L18.738 15.0509L19.926 21.9769C19.9522 22.1299 19.9351 22.2871 19.8766 22.4309C19.8181 22.5746 19.7205 22.6992 19.595 22.7904C19.4694 22.8816 19.3208 22.9359 19.166 22.9472C19.0112 22.9584 18.8564 22.9261 18.719 22.8539L12.5 19.5889L6.27997 22.8569C6.14245 22.9287 5.98759 22.9608 5.83285 22.9493C5.6781 22.9379 5.52963 22.8835 5.40415 22.7922C5.27867 22.701 5.18118 22.5765 5.12267 22.4327C5.06415 22.289 5.04694 22.1318 5.07297 21.9789L6.26097 15.0569L1.22797 10.1569C1.11675 10.0486 1.03807 9.91142 1.00084 9.76076C0.963602 9.6101 0.969297 9.45203 1.01728 9.30445C1.06526 9.15686 1.15361 9.02566 1.27232 8.9257C1.39103 8.82574 1.53536 8.76103 1.68897 8.73888L8.64296 7.72188L11.753 1.42188C11.8218 1.2827 11.9281 1.16553 12.0599 1.08356C12.1918 1.0016 12.3439 0.958112 12.4992 0.958008C12.6544 0.957904 12.8066 1.00119 12.9385 1.08297C13.0705 1.16476 13.177 1.2818 13.246 1.42088Z" fill="#FF6E30"/>
</g>
</svg>
