<svg width="69" height="60" viewBox="0 0 69 60" fill="none" xmlns="http://www.w3.org/2000/svg">
<g id="logo/small" filter="url(#filter0_d_8_9170)">
<path id="Subtract" fill-rule="evenodd" clip-rule="evenodd" d="M24.5184 1.61754C27.3128 0.0975391 30.6871 0.0975387 33.4815 1.61754L49.6815 10.4295C52.7 12.0714 54.5789 15.2324 54.5789 18.6685V35.3457C54.5789 38.7817 52.7 41.9427 49.6815 43.5846L33.4815 52.3966C30.6871 53.9166 27.3128 53.9166 24.5184 52.3966L8.31841 43.5846C5.29998 41.9427 3.42102 38.7817 3.42102 35.3457V18.6684C3.42102 15.2324 5.29998 12.0714 8.3184 10.4295L24.5184 1.61754Z" fill="white"/>
<path id="Path" fill-rule="evenodd" clip-rule="evenodd" d="M33.3166 20.5458V27.0224C33.3166 32.7275 30.2567 35.5263 25.4227 35.5263C20.5886 35.5263 17.6316 32.7006 17.6316 27.1569V20.5458C17.6316 19.3886 18.5058 18.4736 19.6115 18.4736C20.7172 18.4736 21.5914 19.3886 21.5914 20.5458V27.0493C21.5914 30.1171 23.0571 31.7049 25.4741 31.7049C27.8911 31.7049 29.3568 30.171 29.3568 27.1838V20.5458C29.3568 19.3886 30.231 18.4736 31.3367 18.4736C32.4424 18.4736 33.3166 19.3886 33.3166 20.5458ZM38.3885 35.3917C37.2829 35.3917 36.4086 34.4767 36.4086 33.3196V20.5458C36.4086 19.3886 37.2829 18.4736 38.3885 18.4736C39.4942 18.4736 40.3684 19.3886 40.3684 20.5458V33.3196C40.3684 34.4767 39.4942 35.3917 38.3885 35.3917Z" fill="#2B3036"/>
<path id="Oval 8" fill-rule="evenodd" clip-rule="evenodd" d="M53.8649 24.4574C60.5341 24.4574 65.9405 18.9824 65.9405 12.2287C65.9405 5.47497 60.5341 0 53.8649 0C47.1958 0 41.7894 5.47497 41.7894 12.2287C41.7894 18.9824 47.1958 24.4574 53.8649 24.4574Z" fill="#2D68FF"/>
<path id="8" fill-rule="evenodd" clip-rule="evenodd" d="M53.8684 17.0528C55.9079 17.0528 57.4211 16.0028 57.4211 14.2068V14.1792C57.4211 13.0324 56.8684 12.4107 55.9342 11.8995C56.6447 11.4436 57.1053 10.8219 57.1053 9.78573V9.7581C57.1053 8.266 55.8158 7.10547 53.8684 7.10547C51.9211 7.10547 50.6316 8.27981 50.6316 9.7581V9.78573C50.6316 10.8219 51.0921 11.4436 51.8026 11.8995C50.829 12.3693 50.3158 13.0601 50.3158 14.2344V14.262C50.3158 15.9476 51.829 17.0528 53.8684 17.0528ZM53.8684 11.1949C53.0658 11.1949 52.5526 10.6838 52.5526 10.0068V9.97915C52.5526 9.38507 53.0395 8.86007 53.8684 8.86007C54.6974 8.86007 55.1842 9.39889 55.1842 9.99297V10.0206C55.1842 10.6976 54.6711 11.1949 53.8684 11.1949ZM52.2763 14.0963C52.2763 14.7594 52.8684 15.2982 53.8684 15.2982C54.8684 15.2982 55.4605 14.7732 55.4605 14.0963V14.0686C55.4605 13.3226 54.7895 12.8805 53.8684 12.8805C52.9474 12.8805 52.2763 13.3226 52.2763 14.0686V14.0963Z" fill="white"/>
</g>
<defs>
<filter id="filter0_d_8_9170" x="0.578915" y="0" width="68.2036" height="59.6842" filterUnits="userSpaceOnUse" color-interpolation-filters="sRGB">
<feFlood flood-opacity="0" result="BackgroundImageFix"/>
<feColorMatrix in="SourceAlpha" type="matrix" values="0 0 0 0 0 0 0 0 0 0 0 0 0 0 0 0 0 0 127 0" result="hardAlpha"/>
<feOffset dy="2.84211"/>
<feGaussianBlur stdDeviation="1.42105"/>
<feColorMatrix type="matrix" values="0 0 0 0 0 0 0 0 0 0 0 0 0 0 0 0 0 0 0.1 0"/>
<feBlend mode="normal" in2="BackgroundImageFix" result="effect1_dropShadow_8_9170"/>
<feBlend mode="normal" in="SourceGraphic" in2="effect1_dropShadow_8_9170" result="shape"/>
</filter>
</defs>
</svg>
